<?xml version="1.0" encoding="UTF-8" standalone="no"?>
<!-- Created with Inkscape (http://www.inkscape.org/) -->

<svg
   width="435.09433mm"
   height="270.80292mm"
   viewBox="0 0 435.09433 270.80292"
   version="1.1"
   id="svg5"
   xml:space="preserve"
   xmlns="http://www.w3.org/2000/svg"
   xmlns:svg="http://www.w3.org/2000/svg"><defs
     id="defs2" /><g
     id="layer1"
     transform="translate(-271.41799,-62.516194)"><path
       style="fill:#ffffff;stroke-width:0.255059"
       d="M 480.68018,333.1884 C 352.64321,326.08291 257.73128,218.65739 273.03936,98.171319 c 0.45201,-3.5576 2.16403,-13.68575 2.36617,-13.998034 0.22504,-0.347635 1.34607,-0.231836 1.78164,0.184032 0.3086,0.294632 0.41224,0.310062 0.41845,0.0623 0.0716,-2.857728 19.3386,-8.289871 21.48157,-6.056523 1.02748,1.070811 0.64008,1.16633 3.99712,-0.985559 3.55383,-2.278035 5.98074,-2.578633 9.01242,-1.116274 1.06829,0.5153 2.72109,0.997126 4.66968,1.361308 1.65888,0.310037 3.77323,0.869881 4.69858,1.244095 6.37792,2.579282 11.09081,3.319927 15.61042,2.453228 3.11912,-0.598136 7.88072,-0.856133 22.29926,-1.208241 6.33686,-0.154749 5.49337,-0.359598 7.51235,1.824422 0.60912,0.658917 1.76566,0.631815 5.20389,-0.121954 5.03496,-1.103818 7.17402,-0.688238 8.50873,1.653095 1.04953,1.841103 1.61844,2.051043 5.28842,1.951573 8.35624,-0.22651 14.98885,-0.0196 16.58161,0.5172 1.53475,0.51727 1.53475,0.51727 3.2629,-0.57281 3.44981,-2.176044 6.73048,-3.42421 10.13642,-3.856511 2.19318,-0.278368 2.7903,-0.566712 10.64707,-5.141405 19.30241,-11.239033 27.27423,-15.035324 28.42604,-13.536853 0.1581,0.205699 0.75007,0.456638 1.31548,0.557638 1.76493,0.315283 3.76017,1.48253 9.0569,5.298422 7.13483,5.14011 9.4297,6.205508 11.71126,5.436951 2.676,-0.901435 4.43396,-0.470842 7.08297,1.734899 1.27354,1.060458 2.26638,1.604928 4.39428,2.409813 1.51193,0.571902 3.5125,1.490865 4.44569,2.042143 3.71132,2.192443 3.27991,2.176712 6.04651,0.220461 9.93091,-7.022164 13.81079,-8.562366 17.86386,-7.091424 1.5233,0.552838 1.26284,0.662019 4.02283,-1.686375 4.17701,-3.554045 4.97182,-3.806513 7.60125,-2.414451 3.96169,2.097387 6.51737,2.776533 10.2513,2.724167 3.92589,-0.05506 4.65459,0.1593 6.94269,2.042364 1.83143,1.507235 2.64595,1.898653 6.00373,2.885157 1.50746,0.442884 3.5631,1.208084 4.56807,1.700444 1.77974,0.871935 1.89571,0.893652 4.46277,0.835614 2.19724,-0.04967 2.84844,0.02803 3.91549,0.467237 2.64141,1.087231 16.52191,0.872934 24.64222,-0.380441 6.26637,-0.967207 7.4985,-0.857014 10.06075,0.89982 1.16628,0.799669 1.16628,0.799669 5.01524,0.0062 7.40061,-1.525601 9.26734,-1.606884 12.98496,-0.565379 8.28005,2.319665 7.14346,2.152005 14.09573,2.079278 3.44568,-0.03605 9.61253,0.05973 13.7042,0.212827 10.96201,0.41016 16.60986,-0.607205 19.87561,-3.580218 0.66653,-0.606762 2.07612,-1.567593 3.13243,-2.135181 4.98906,-2.680797 6.90966,-3.86552 8.3946,-5.178111 4.24319,-3.750663 5.43682,-3.924775 9.4894,-1.384125 3.53418,2.215711 7.57667,6.549084 8.59882,9.217778 0.58978,1.539845 1.18952,2.066718 3.29569,2.895464 2.54359,1.000809 3.95,3.739767 5.12755,9.985977 20.06235,106.415653 -48.83231,209.344623 -157.23674,234.912583 -2.87135,0.67723 -5.5143,1.35771 -5.87322,1.51215 -0.92103,0.39636 -2.54019,0.73678 -3.91548,0.82318 -0.64606,0.0406 -2.76041,0.36541 -4.69857,0.72182 -6.49301,1.19395 -15.06378,2.23838 -23.88442,2.91048 -4.54658,0.34647 -22.0293,0.50509 -26.75577,0.2428 z m 26.36422,-2.49022 c 11.14635,-0.81242 26.72169,-3.02164 28.84402,-4.09127 0.4307,-0.21708 1.06152,-0.3954 1.40183,-0.39623 0.34028,0 1.10379,-0.29001 1.6967,-0.64256 3.71339,-2.20818 5.1226,-2.95934 14.12958,-7.53135 2.29708,-1.16604 5.58609,-2.90847 7.30889,-3.87209 3.93454,-2.2007 10.55898,-5.78989 18.1417,-9.82937 11.97185,-6.37762 18.41322,-10.66306 30.35901,-20.1978 4.19518,-3.34842 13.19059,-13.2 16.2614,-17.809 4.32863,-6.49714 5.34198,-9.0794 7.01494,-17.87653 1.70031,-8.94107 5.85254,-15.37553 12.24109,-18.96958 1.74162,-0.97977 3.94707,-2.26441 4.90115,-2.85474 2.24783,-1.39087 6.5389,-3.44286 8.6284,-4.12608 4.13322,-1.35148 9.57767,-4.53349 12.99928,-7.5974 0.64611,-0.57852 2.06978,-1.65012 3.16365,-2.38134 7.53734,-5.03822 13.23648,-12.61724 14.86777,-19.77189 1.04634,-4.58977 0.84435,-8.59816 -0.43332,-8.59816 -0.20351,0 -0.36994,-0.0976 -0.36994,-0.21679 0,-0.11926 -0.49928,-0.2794 -1.10936,-0.35592 -7.27761,-0.91242 -8.6203,-1.50928 -10.55804,-4.69344 -2.34653,-3.85561 -9.8401,-7.40941 -17.30714,-8.20774 -6.68021,-0.71419 -23.69898,-6.62865 -31.84606,-11.06728 -3.29122,-1.79311 -4.58966,-2.37477 -5.30114,-2.37477 -0.65597,0 -1.12403,-0.18237 -1.54021,-0.59999 -1.47144,-1.47669 -9.45666,-3.68034 -17.27722,-4.76789 -1.56451,-0.21757 -3.73769,-0.66475 -4.82909,-0.99375 -4.32699,-1.30418 -8.46725,-1.88593 -9.10291,-1.27901 -0.32769,0.31288 -0.13075,0.39881 1.52542,0.66553 1.04598,0.16844 2.73232,0.57836 3.74743,0.91096 1.01512,0.33258 2.81941,0.82378 4.00975,1.09156 2.77668,0.62462 3.71903,1.10017 5.79737,2.92542 1.5117,1.32765 5.02956,3.7749 6.524,4.53852 0.30375,0.15519 2.55004,0.66934 4.99199,1.14258 2.44184,0.47322 5.28389,1.1921 6.31579,1.59746 1.0319,0.40538 3.28571,1.08805 5.00843,1.51706 1.72284,0.42902 6.42141,1.82341 10.44125,3.09862 4.01996,1.27525 8.89471,2.79408 10.83292,3.37519 7.69919,2.30844 14.55135,5.47124 15.85988,7.32069 3.09745,4.37743 1.52648,7.66691 -4.92967,10.32316 -0.62792,0.25832 -1.78763,0.8383 -2.57728,1.28889 -2.32634,1.32749 -12.58227,6.6452 -17.09752,8.86507 -2.71401,1.33433 -5.6847,2.54794 -8.48357,3.46581 -2.36883,0.77684 -5.83399,2.08902 -7.70037,2.91594 -6.18504,2.74032 -10.38926,4.47054 -15.0619,6.19856 -2.54136,0.93984 -6.65263,2.62388 -9.13613,3.74231 -2.4835,1.11843 -5.7489,2.52909 -7.25637,3.13474 -6.23926,2.50677 -8.78379,4.32422 -9.02932,6.44908 -0.26866,2.32571 -0.6575,2.87769 -3.05555,4.33681 -6.81073,4.14413 -12.45978,6.94775 -19.49477,9.67528 -14.84763,5.75655 -23.29388,8.77074 -38.89897,13.88174 -12.83261,4.20296 -19.71062,6.92179 -29.23558,11.55659 -10.50185,5.11017 -12.31827,5.96114 -16.57552,7.76535 -1.86638,0.79096 -5.21412,2.24955 -7.43941,3.24127 -2.2253,0.99177 -5.39683,2.28191 -7.04786,2.86703 -9.78456,3.46763 -21.19945,8.1164 -29.36609,11.95952 -3.58919,1.68902 -8.11156,3.74371 -10.04972,4.566 -1.93816,0.82225 -6.51928,2.89084 -10.18026,4.59686 -3.66096,1.70602 -8.09573,3.67979 -9.85504,4.38613 -10.51908,4.22341 -10.71805,4.4108 -6.72048,6.32971 12.79024,6.13945 36.70542,14.60207 43.7934,15.4967 0.32012,0.0404 0.9127,0.20075 1.31685,0.35629 0.40416,0.15556 0.91318,0.28284 1.13116,0.28284 0.21797,0 1.29687,0.21792 2.39755,0.48426 9.89706,2.39497 24.03506,4.22824 39.32879,5.09978 3.04487,0.17351 20.1513,-0.0752 23.88442,-0.34734 z m -157.03145,-51.9702 c 0.93957,-0.20805 2.62073,-0.71434 3.7359,-1.12508 1.11516,-0.41077 4.9343,-1.59251 8.48698,-2.62611 6.54767,-1.90492 8.11925,-2.45864 12.33488,-4.34595 1.29211,-0.57847 3.63417,-1.50203 5.20458,-2.05236 1.57042,-0.55033 4.80069,-1.83587 7.17838,-2.85678 9.68995,-4.16051 17.41786,-6.87466 22.20377,-7.7983 3.69483,-0.71304 6.61494,-1.46457 13.57366,-3.49336 5.83028,-1.69982 6.75299,-1.99178 12.52953,-3.96479 1.65103,-0.56391 5.11299,-1.65349 7.69325,-2.42124 2.58026,-0.76778 5.5756,-1.76569 6.65631,-2.21763 1.08071,-0.45191 2.96338,-1.11663 4.1837,-1.47718 5.97913,-1.76646 22.00347,-7.05677 30.93229,-10.21201 4.79849,-1.6957 9.8421,-3.2823 17.61965,-5.54274 7.33343,-2.13134 11.91827,-3.61364 15.94286,-5.15438 2.3798,-0.91108 7.6657,-2.76655 11.74643,-4.12329 11.93428,-3.96788 22.22723,-7.78676 26.73586,-9.91945 8.01966,-3.79356 28.12988,-11.74365 39.56548,-15.64132 2.52305,-0.85992 4.81359,-1.67894 5.09011,-1.82007 1.11406,-0.56838 6.17729,-2.12238 9.58389,-2.94144 1.98914,-0.47826 4.87087,-1.32868 6.40393,-1.8898 1.53305,-0.56115 4.78425,-1.66761 7.22491,-2.45885 12.7568,-4.13563 14.65159,-5.77473 8.78978,-7.60397 -1.24527,-0.38857 -3.61481,-1.20227 -5.26582,-1.80826 -4.33121,-1.58963 -7.3789,-2.32758 -16.31456,-3.95024 -1.14856,-0.20857 -4.16831,-0.86936 -6.71061,-1.46841 -2.5423,-0.59908 -6.77387,-1.48556 -9.40338,-1.96999 -4.88777,-0.90047 -13.33941,-3.30665 -17.3555,-4.9411 -2.37704,-0.9674 -3.30331,-1.986 -3.57337,-3.92922 -0.47522,-3.42068 -16.90694,-8.34433 -32.00007,-9.58862 -7.73839,-0.63795 -10.33394,-1.74168 -9.77807,-4.15803 0.86605,-3.76467 8.93875,-4.50196 46.06147,-4.20693 6.77176,0.0538 8.10259,-0.002 11.03432,-0.45964 4.68367,-0.73177 7.32596,-0.70869 8.14272,0.0711 0.61102,0.58333 2.92434,-0.31708 7.07563,-2.75398 0.9623,-0.56487 0.0505,-0.62739 -12.46385,-0.85405 -6.93784,-0.12566 -16.13136,-0.32944 -20.43032,-0.45286 -7.24605,-0.208 -7.95584,-0.19026 -9.73065,0.24312 -1.05297,0.25712 -2.99777,0.53557 -4.3218,0.61881 -1.32402,0.0832 -2.99466,0.25444 -3.7125,0.38044 -4.90785,0.86161 -16.13396,1.94647 -21.55797,2.08331 -3.24283,0.0818 -8.35252,0.3148 -11.35489,0.51774 -3.00236,0.20295 -6.9689,0.36992 -8.81458,0.37107 -5.77736,0.004 -11.66972,2.36207 -9.94317,3.97984 0.61316,0.57455 5.00571,1.84753 7.69822,2.23099 1.07044,0.15244 4.35427,0.61437 7.29741,1.02651 11.72774,1.64228 11.32539,1.42548 11.41065,6.14818 0.0716,3.96626 -0.002,3.87894 5.42552,6.4189 5.94132,2.78029 9.53985,3.82835 19.26,5.60945 1.80958,0.3316 4.41945,1.10194 7.30889,2.15737 2.47187,0.90291 5.25781,1.8672 6.191,2.14289 13.31161,3.93256 -1.46167,16.59881 -31.71538,27.19202 -3.73275,1.30702 -9.31231,3.28731 -12.39901,4.40066 -5.69045,2.05251 -11.41096,3.8488 -18.27223,5.73763 -2.08173,0.57308 -5.95805,1.70774 -8.61406,2.52144 -5.38561,1.65 -8.02589,2.32178 -13.57365,3.45358 -2.08173,0.42467 -5.95805,1.26237 -8.61406,1.86153 -2.65599,0.59917 -6.59105,1.39201 -8.74456,1.76187 -8.95464,1.53797 -19.91078,3.70804 -26.44477,5.23784 -3.83203,0.89722 -8.25943,1.91298 -9.83867,2.25725 -1.57924,0.34428 -3.77469,0.89642 -4.87877,1.22702 -3.81392,1.14198 -10.79211,2.82256 -13.39346,3.22563 -1.43568,0.22243 -3.4913,0.62293 -4.56805,0.88999 -1.07677,0.2671 -3.24985,0.7693 -4.82909,1.11605 -1.57926,0.34673 -4.28093,1.07154 -6.00374,1.61068 -4.95571,1.55083 -12.00572,3.36749 -18.7943,4.84298 -6.36161,1.38269 -13.59291,3.45516 -18.7943,5.38641 -1.59667,0.59282 -6.23185,1.86925 -10.44127,2.87529 -4.16346,0.99504 -9.1867,2.32711 -11.16276,2.96013 -4.72311,1.51308 -7.98427,2.15198 -11.80805,2.31338 -1.7228,0.0727 -3.27821,0.20645 -3.45644,0.29722 -1.16163,0.5916 25.1831,27.43739 26.9253,27.43739 0.0671,0 0.89088,-0.17023 1.83047,-0.37827 z m -46.37198,-54.07064 c 0.67978,-0.33936 2.41023,-0.8948 3.84542,-1.23428 1.4352,-0.33952 3.13804,-0.79627 3.78409,-1.01503 1.38357,-0.46852 9.04684,-2.21616 11.4854,-2.6193 0.93319,-0.15427 3.16502,-0.61523 4.95961,-1.02435 4.41813,-1.00726 7.4624,-1.58319 12.30653,-2.32821 2.2462,-0.34546 4.94788,-0.80334 6.00373,-1.01747 1.05584,-0.21413 4.39892,-0.82888 7.42906,-1.36613 3.03015,-0.53722 8.02238,-1.58606 11.09386,-2.3307 6.00559,-1.45601 5.98951,-1.45303 14.98165,-2.76905 3.30206,-0.48326 7.50773,-1.27063 9.34594,-1.74969 1.83822,-0.47908 5.1912,-1.26258 7.45107,-1.74111 2.25987,-0.47856 6.86873,-1.58655 10.24191,-2.46226 6.04538,-1.5694 11.62595,-2.82565 19.548,-4.40041 2.22129,-0.44157 5.92143,-1.36439 8.2225,-2.05074 6.87991,-2.05207 8.08279,-2.37 13.02445,-3.44238 2.60315,-0.56491 7.90454,-1.74039 11.78086,-2.61217 3.87633,-0.87177 8.80983,-1.93114 10.96334,-2.35414 2.15351,-0.42301 5.57249,-1.21505 7.59772,-1.76011 2.02523,-0.54502 5.31425,-1.21249 7.3089,-1.48321 7.31502,-0.99285 10.71056,-1.98209 20.6224,-6.00799 3.9709,-1.61286 5.5835,-2.50996 5.5835,-3.1061 0,-2.35851 -5.99444,-5.59993 -12.56511,-6.79443 -5.60294,-1.0186 -7.1215,-1.96147 -8.1733,-5.0748 -1.13988,-3.37409 -1.08401,-3.33142 -9.01922,-6.88682 -0.93319,-0.41812 -2.75389,-1.38931 -4.046,-2.15821 -1.84355,-1.09704 -3.1894,-1.6498 -6.25182,-2.56766 -4.94702,-1.48271 -5.26668,-1.74838 -6.426,-5.34066 -1.6571,-5.13472 -2.35534,-5.7577 -6.95194,-6.20263 -6.77583,-0.6559 -14.54451,-2.03173 -19.00296,-3.36545 -1.35555,-0.4055 -3.41627,-0.74141 -5.87322,-0.95732 -2.08173,-0.18299 -4.48974,-0.50533 -5.35115,-0.71635 -3.24082,-0.79386 -6.1551,-1.16029 -11.09386,-1.39489 -4.51578,-0.21447 -5.39938,-0.32994 -7.83095,-1.02327 -1.50746,-0.42984 -3.38049,-0.94875 -4.1623,-1.15313 -0.7818,-0.20441 -1.98191,-0.64279 -2.6669,-0.97419 -0.80385,-0.38893 -1.69056,-0.60257 -2.50086,-0.60257 -2.51347,0 -5.8078,-0.54967 -11.94404,-1.99289 -3.44562,-0.81042 -7.02829,-1.59939 -7.96148,-1.75328 -0.93319,-0.1539 -3.22374,-0.60239 -5.09012,-0.99664 -1.86638,-0.39427 -4.56806,-0.89458 -6.00374,-1.11182 -3.66621,-0.55477 -7.64089,-1.27054 -12.72524,-2.29163 -3.10367,-0.62331 -4.6941,-0.83243 -5.48166,-0.72076 -0.6102,0.0865 -1.36669,0.18241 -1.68108,0.21309 -0.57164,0.0558 -0.57164,0.0558 -0.0493,0.80345 0.28732,0.41121 1.45543,2.55052 2.5958,4.75396 2.14244,4.13966 3.5657,6.08719 4.44857,6.08719 0.76115,0 3.44724,1.13786 5.551,2.3515 2.49456,1.43906 3.54567,1.93262 6.16723,2.89586 1.22033,0.44838 3.86327,1.61293 5.87321,2.58789 4.5388,2.20162 10.67122,4.98648 14.04137,6.37646 5.07704,2.09401 8.33673,4.72058 7.90354,6.36849 -0.16818,0.63975 -0.45714,0.73961 -2.77232,0.95805 -2.65178,0.25021 -7.49336,2.17653 -8.01028,3.18711 -1.06882,2.08944 -0.29385,3.57074 2.17913,4.16528 0.67027,0.16113 2.7587,0.83216 4.64094,1.49113 1.88223,0.65899 3.89209,1.27162 4.46637,1.36141 0.57427,0.0898 3.04102,0.77428 5.48167,1.52103 2.44065,0.74677 5.55346,1.68686 6.91734,2.0891 1.36389,0.40224 3.94812,1.37608 5.7427,2.16409 2.71553,1.19238 6.63067,2.80138 12.85583,5.28328 0.79367,0.31643 0.97887,0.51952 0.97887,1.07347 0,0.37737 0.17526,0.74742 0.39155,0.82664 4.04977,1.48375 -6.21752,6.40941 -19.31636,9.26692 -7.66055,1.67115 -9.50674,1.98609 -16.70605,2.8499 -6.84417,0.8212 -8.64327,1.07765 -14.61778,2.08369 -2.00994,0.33844 -4.4767,0.68967 -5.48168,0.78048 -1.00497,0.0908 -3.64791,0.38002 -5.87321,0.64269 -8.91951,1.05291 -17.0184,1.98904 -20.35344,2.35263 -1.93428,0.21087 -5.22328,0.76795 -7.30889,1.23796 -2.08561,0.47001 -4.79046,0.98432 -6.01078,1.14296 -2.52432,0.32807 -5.64218,0.80874 -8.87509,1.36825 -1.22032,0.21119 -3.922,0.54694 -6.00373,0.74612 -2.08174,0.19915 -4.84214,0.47317 -6.13425,0.60889 -1.29212,0.13576 -4.16999,0.3137 -6.39528,0.39547 -3.35317,0.12319 -8.56813,0.70343 -11.14799,1.24033 -0.52237,0.10875 -1.52075,-1.66872 -1.09708,-1.95311 0.61558,-0.41321 7.86872,-1.2474 14.33332,-1.64847 9.57994,-0.59434 9.5204,-0.56254 5.79215,-3.09299 -1.82179,-1.23649 -4.39928,-3.28498 -5.72776,-4.55221 -1.77254,-1.69081 -2.74518,-2.41947 -3.65444,-2.73765 -2.86556,-1.00276 -4.95418,-1.9266 -6.94948,-3.07388 -2.29254,-1.3182 -8.85115,-4.50821 -9.26878,-4.50821 -0.41668,0 -0.60374,-0.93768 -0.29642,-1.48591 0.56667,-1.01095 3.75455,0.20062 11.49067,4.36706 2.04034,1.09887 4.36653,2.10328 4.8711,2.10328 0.0588,0 -5.2e-4,-0.19626 -0.13151,-0.43614 -1.83281,-3.3532 -4.02655,-11.83823 -3.17338,-12.27417 0.65092,-0.3326 1.56466,0.0715 1.56952,0.69413 0.0149,1.90727 4.47718,12.76384 5.24625,12.76384 0.47565,0 1.27621,1.14209 1.27621,1.82065 0,0.49554 2.3158,2.52413 5.22064,4.57317 4.17474,2.9448 5.2383,3.57505 6.03302,3.57505 0.5029,0 0.7538,0.12703 0.7538,0.38166 0,0.66246 0.63767,0.66527 4.21476,0.0187 1.91713,-0.34657 4.52637,-0.7513 5.79832,-0.89944 3.02276,-0.35203 5.86452,-0.87417 8.12781,-1.49339 1.00452,-0.27484 2.10745,-0.49968 2.45097,-0.49968 0.57381,0 0.54865,-0.0493 -0.3094,-0.60514 -0.51368,-0.33281 -1.55093,-1.07075 -2.30499,-1.63983 -1.73263,-1.30759 -2.97682,-1.9066 -7.30598,-3.51732 -5.46899,-2.03482 -7.22758,-3.20449 -12.96461,-8.62298 -5.92376,-5.59486 -14.26179,-11.76192 -15.2321,-11.26612 -0.9041,0.4619 -1.79114,-0.10264 -1.79114,-1.13999 0,-2.69357 3.52953,-1.55428 9.65818,3.11751 1.3639,1.03968 3.1846,2.40374 4.04601,3.03126 0.86139,0.62752 3.09322,2.57505 4.9596,4.32788 5.98685,5.62261 7.45007,6.58137 13.615,8.92122 4.01379,1.52339 5.46955,2.2784 7.78961,4.03995 0.57427,0.43604 1.36537,0.86597 1.75799,0.95545 0.72259,0.16463 1.21217,1.0945 0.8615,1.63623 -0.0938,0.14485 -0.0168,0.26331 0.17119,0.26323 0.55704,-2.5e-4 9.51385,-0.98163 12.47969,-1.36738 1.50746,-0.19606 5.32505,-0.64929 8.48353,-1.0072 9.09318,-1.03036 11.24751,-1.3131 15.13986,-1.98705 2.00994,-0.34798 6.47358,-0.97288 9.9192,-1.38867 16.65262,-2.00931 31.53961,-5.72913 35.27862,-8.81499 1.15945,-0.95691 1.28082,-0.87367 -4.73789,-3.25047 -1.86637,-0.73702 -5.3903,-2.19602 -7.83095,-3.24217 -2.44065,-1.04614 -5.31853,-2.12562 -6.39528,-2.39881 -1.07675,-0.2732 -3.8959,-1.0973 -6.26477,-1.83131 -2.36886,-0.734 -4.89434,-1.46315 -5.61219,-1.62029 -0.71783,-0.15716 -2.77345,-0.85147 -4.56805,-1.54293 -1.7946,-0.69149 -3.79149,-1.43257 -4.43754,-1.64688 -2.06243,-0.68416 -2.87481,-1.15626 -3.20121,-1.86029 -0.37012,-0.79833 -4.54206,-2.70522 -9.60456,-4.39006 -1.64266,-0.54668 -4.80736,-1.79876 -7.03265,-2.78239 -7.64965,-3.38131 -10.39584,-4.43044 -15.95887,-6.09681 -12.25745,-3.6716 -22.53698,-7.82225 -30.11327,-12.15906 -5.2094,-2.98193 -5.3613,-3.07987 -10.18024,-6.56259 -2.29709,-1.66015 -5.35115,-3.75774 -6.78683,-4.66137 -8.35921,-5.26125 -16.49727,-12.92373 -15.12121,-14.23754 0.68411,-0.65314 0.90626,-0.51141 4.68498,2.98925 3.81333,3.53273 8.88902,7.47663 12.00242,9.32609 1.64218,0.9755 4.62,3.04573 9.52767,6.62379 5.90861,4.30782 13.75689,8.17313 27.69153,13.63814 0.51466,0.20184 4.15606,1.3487 8.09198,2.54859 7.27987,2.21926 9.17173,2.93046 17.72803,6.66443 2.65599,1.15908 5.81941,2.41999 7.02981,2.80202 1.21039,0.38201 3.3711,1.18328 4.80158,1.78061 1.43048,0.59732 2.70134,1.08601 2.82415,1.08601 0.51581,0 0.16756,-0.92202 -0.49457,-1.30933 -0.73006,-0.42707 -4.988,-3.81972 -9.63442,-7.67655 -2.7276,-2.26408 -5.31093,-4.1379 -8.78791,-6.37429 -2.2907,-1.4734 -6.24607,-4.60151 -6.83711,-5.40714 -0.19849,-0.27056 -0.87048,-1.00769 -1.49331,-1.63804 -2.24773,-2.2749 -3.05213,-3.45625 -5.13036,-7.53457 -2.82217,-5.53819 -3.51452,-6.26949 -7.4057,-7.82207 -2.98514,-1.19108 -7.1552,-3.21798 -9.98096,-4.85132 -0.86141,-0.49792 -2.97576,-1.61902 -4.69856,-2.49135 -5.22736,-2.64682 -7.29949,-4.08694 -10.96657,-7.62178 -2.54708,-2.45523 -6.51649,-4.81446 -9.19134,-5.46289 -5.97616,-1.448761 -10.25091,-2.997741 -12.16122,-4.406731 -4.98458,-3.67641 -6.48743,-4.92223 -9.5765,-7.93857 -3.34142,-3.26275 -3.56786,-3.43416 -4.37228,-3.30968 -1.03983,0.1609 -1.21501,-0.41876 1.27517,4.21928 4.36836,8.13619 4.84886,8.56744 13.66891,12.267721 4.3829,1.83877 11.66339,5.62093 17.61965,9.15331 1.22032,0.72371 4.03722,2.11551 6.25977,3.09288 4.63652,2.0389 4.84358,2.15291 8.88007,4.88905 3.03887,2.0599 6.26477,4.9759 6.26477,5.66293 0,1.87313 -1.39464,1.60738 -4.03055,-0.76803 -2.65423,-2.39191 -8.2839,-6.04201 -11.01759,-7.14347 -2.57023,-1.03558 -6.56192,-3.00567 -9.61938,-4.74761 -8.21568,-4.68074 -12.93752,-7.06302 -18.56583,-9.36685 -6.04789,-2.475581 -7.20144,-3.668001 -11.37016,-11.753221 -1.27602,-2.47484 -2.36037,-4.45698 -2.40966,-4.40475 -0.20701,0.21935 -1.48025,7.96233 -2.10481,12.79997 -5.50377,42.630751 4.67599,91.305811 26.28339,125.675321 0.6086,0.96805 0.45142,0.95268 1.97324,0.19294 z m 70.75124,-24.70658 c -0.64956,-0.18797 -0.86733,-1.48716 -0.37058,-2.21098 1.15193,-1.67853 11.20697,-4.77012 20.75742,-6.38219 1.66292,-0.2807 3.96321,-0.73657 5.11176,-1.01303 1.14854,-0.27647 3.03662,-0.59619 4.19574,-0.71051 1.5122,-0.14915 3.13429,-0.57376 5.7427,-1.50318 5.37943,-1.91684 12.63051,-4.0269 18.38352,-5.34962 2.79956,-0.64366 6.08857,-1.53743 7.3089,-1.9861 3.09621,-1.13844 4.12083,-1.43145 10.04971,-2.87404 7.34063,-1.78608 7.15261,-1.69463 5.87927,-2.8594 -1.07847,-0.98647 -1.2999,-1.85229 -1.23605,-4.83306 0.0682,-3.18512 -1.06055,-4.43051 -6.34888,-7.00467 -5.17549,-2.51923 -8.33679,-6.14336 -10.02377,-11.49129 -0.99952,-3.16855 -2.87694,-4.16585 -11.94807,-6.34687 -8.21221,-1.97451 -19.59865,-6.15244 -19.73994,-7.24299 -0.0907,-0.69995 0.29019,-1.08274 1.08367,-1.08912 0.2615,-0.002 0.6685,-0.18811 0.90444,-0.41338 0.52512,-0.50136 5.38511,-0.33478 8.80035,0.30163 1.14854,0.21404 4.14388,0.48933 6.65632,0.61181 2.51243,0.12247 5.9189,0.45058 7.56992,0.7291 1.65103,0.27853 3.47173,0.50831 4.046,0.51063 0.57427,0.002 2.57116,0.21688 4.43754,0.47679 1.86638,0.25994 4.21567,0.55058 5.22064,0.64591 4.59715,0.43607 12.59512,3.20384 15.84905,5.48472 1.53606,1.07671 1.92332,1.78886 2.74065,5.03996 1.139,4.53053 2.9841,6.48251 9.11937,9.64762 7.4085,3.82194 8.41924,5.18538 6.11493,8.24888 -0.99179,1.31856 -0.9957,1.2171 0.1101,2.85589 1.58844,2.35397 0.9751,4.50767 -2.10584,7.39451 -3.10779,2.91199 -6.49695,4.12272 -15.12227,5.40222 -2.75293,0.40838 -5.42215,0.99829 -7.83096,1.7307 -2.00994,0.61114 -5.5926,1.56782 -7.96146,2.12601 -2.36887,0.55818 -6.30392,1.48371 -8.74457,2.05675 -4.24812,0.99742 -10.2281,2.23699 -15.53141,3.21952 -1.36388,0.25266 -3.30204,0.64354 -4.30703,0.86859 -3.03105,0.67873 -12.96043,2.57872 -14.35674,2.74716 -0.71785,0.0865 -2.4798,0.37315 -3.91548,0.63676 -11.63179,2.13593 -18.90548,3.04794 -20.539,2.57527 z m -2.83157,-11.26719 c -0.60661,-0.25705 -7.04263,-4.58253 -10.46103,-7.03059 -3.1236,-2.23695 -4.53538,-3.08893 -8.92649,-5.38706 -3.93332,-2.05851 -5.33107,-2.53288 -11.2737,-3.82614 -7.69083,-1.6737 -10.94488,-3.08786 -18.27405,-7.94151 -18.95304,-12.55142 -17.74333,-12.19743 -26.77795,-7.83625 -5.63693,2.72105 -9.08478,3.2519 -9.10994,1.4026 -0.008,-0.63091 0.83035,-1.07699 2.02547,-1.07699 1.00265,0 1.99108,-0.37714 5.78931,-2.209 5.58492,-2.69357 6.8361,-3.10587 9.49881,-3.1304 2.88334,-0.0266 -2.10241,-4.4901 -9.35612,-8.37616 -0.8614,-0.46148 -2.60686,-1.4895 -3.87878,-2.28449 -1.27193,-0.79502 -2.38785,-1.45459 -2.4798,-1.4657 -0.092,-0.0118 -0.4971,-0.0431 -0.90031,-0.0711 -0.69726,-0.0484 -1.21664,-0.4882 -1.21664,-1.03009 0,-1.49417 2.3783,-1.38981 5.10645,0.22408 1.13516,0.67153 3.1521,1.81663 4.48207,2.54468 4.98333,2.7279 7.46163,4.47398 11.28633,7.95171 0.93336,0.84868 1.96089,1.62301 2.28343,1.72076 0.69349,0.21014 1.00609,1.14247 0.61624,1.83798 -0.25069,0.4472 0.0932,0.72579 3.64318,2.95155 2.15601,1.35176 5.28254,3.397 6.94786,4.54497 9.81509,6.76586 13.32578,8.40467 21.91699,10.23092 5.29773,1.12616 6.01632,1.34342 8.71661,2.63577 4.6027,2.20277 9.24595,4.91036 11.73621,6.84364 0.64606,0.50157 2.26595,1.63407 3.59975,2.51672 1.33381,0.88265 3.12329,2.08142 3.97662,2.66398 0.85334,0.58256 1.83912,1.05919 2.19062,1.05919 0.74803,0 1.05543,0.6551 0.80935,1.72481 -0.19697,0.85623 -1.04334,1.2051 -1.97049,0.8122 z m 18.28044,-3.37928 c -0.64605,-0.31174 -3.52393,-2.19167 -6.39528,-4.17765 -6.6662,-4.61065 -7.76412,-5.30889 -11.09385,-7.05553 -2.89555,-1.51889 -6.39677,-3.80946 -11.02851,-7.21512 -7.84102,-5.76542 -24.19298,-14.92561 -29.03989,-16.26787 -1.49454,-0.41389 -1.12099,-1.68164 0.52206,-1.7718 3.35229,-0.18392 20.8659,9.32152 31.58486,17.1426 4.35036,3.1742 6.71432,4.69725 10.04973,6.4748 3.14472,1.67592 4.78983,2.71991 10.44128,6.62613 2.51243,1.73655 5.18475,3.54024 5.93847,4.0082 1.46241,0.90795 1.96351,2.30944 0.95752,2.67801 -0.56791,0.20808 -0.60916,0.19866 -1.93639,-0.44177 z m -52.54444,-17.68967 c -0.84928,-0.37081 -2.15001,-1.42657 -4.04599,-3.284 -3.96262,-3.882 -6.84851,-6.31515 -11.22186,-9.46137 -2.33327,-1.67856 -4.24811,-3.27288 -4.9389,-4.11216 -2.40148,-2.91772 -3.20875,-3.66856 -4.81945,-4.48264 -0.9089,-0.4594 -3.2383,-1.78403 -5.17647,-2.94366 -6.12709,-3.66596 -15.70544,-8.16986 -18.34929,-8.62819 -1.47325,-0.25537 -2.01494,-2.11588 -0.72946,-2.50542 0.5447,-0.16506 1.32858,0.067 1.32858,0.39339 0,0.12239 0.22485,0.22256 0.49967,0.22256 1.76625,0 13.25177,5.27274 19.20824,8.81804 4.70753,2.80194 -2.39166,-4.16178 -10.96305,-10.75384 -2.72991,-2.09952 -3.61172,-3.74812 -2.22893,-4.16714 0.54188,-0.16421 1.57606,0.23596 1.57606,0.60985 0,0.12181 1.20401,1.11685 2.67557,2.21122 1.47157,1.09435 2.97012,2.25243 3.3301,2.5735 0.35998,0.32105 2.06093,1.76133 3.77987,3.20059 4.13536,3.46248 19.63901,18.30519 23.77723,22.76356 1.80174,1.94113 4.00258,4.13274 4.89076,4.87023 4.12272,3.42334 4.57742,4.01928 3.70336,4.8538 -0.53749,0.51317 -0.75011,0.49668 -2.29604,-0.17832 z m 13.11856,-28.28721 c -0.49695,-0.25515 -1.5496,-0.80907 -2.33922,-1.23092 -0.78962,-0.42187 -3.13891,-1.34887 -5.22064,-2.06 -2.08173,-0.71115 -4.43101,-1.56858 -5.22064,-1.90537 -2.51468,-1.07263 -4.71252,-1.75936 -9.35495,-2.92305 -8.36455,-2.09668 -8.28405,-2.05665 -14.39895,-7.15737 -6.0183,-5.02014 -16.75229,-12.17195 -21.84679,-14.55602 -2.36318,-1.1059 -2.87599,-1.59915 -2.53769,-2.44089 0.19707,-0.49031 1.26538,-0.53509 2.3244,-0.0975 2.64092,1.09147 8.26826,4.24909 12.27138,6.88571 7.03338,4.6325 9.2529,6.27445 13.02298,9.63412 3.34123,2.9775 4.7791,3.67663 10.73093,5.21771 5.54652,1.43608 7.86226,2.15399 11.44608,3.54836 1.55762,0.60603 4.0831,1.53092 5.61219,2.05531 6.58545,2.25845 9.01677,3.86508 7.72111,5.10212 -0.53727,0.51294 -1.10662,0.49432 -2.21019,-0.0723 z m 345.23702,41.69117 c 1.57848,-0.1345 1.57848,-0.1345 2.53537,-3.9207 2.08398,-8.24553 3.76938,-17.00073 3.04358,-15.81117 -0.14624,0.23988 -0.46571,0.4401 -0.70984,0.44495 -0.87885,0.0174 -1.69326,0.68724 -2.49688,2.05352 -6.15863,10.46918 -7.60882,11.7751 -14.60417,13.15072 -10.0942,1.98506 -0.54716,5.17161 12.23194,4.08268 z M 678.54237,176.32 c 0,-0.40839 1.46745,-0.85792 5.43025,-1.6635 4.02488,-0.81819 6.20311,-2.6795 9.2387,-7.89454 1.42614,-2.45013 2.80274,-4.26448 4.3101,-5.68086 1.69208,-1.58993 1.68927,-1.61784 -0.13157,-1.34009 -1.94502,0.29669 -2.86495,0.9279 -5.27838,3.62189 -4.60621,5.14154 -10.55557,10.36161 -13.34998,11.71359 -1.14809,0.55545 -1.23318,0.65556 -0.93905,1.10523 0.37874,0.57893 0.71993,0.64448 0.71993,0.13828 z m 0.65256,-4.27671 c 1.31194,-0.8263 9.02886,-7.99135 11.48078,-10.65966 2.88807,-3.14314 4.69565,-3.91533 9.16254,-3.9144 2.58549,0 2.56577,0.0684 3.82513,-13.1919 0.43884,-4.62057 0.43496,-25.15685 0,-29.9066 -0.95314,-10.27589 -3.16294,-24.943151 -3.97782,-26.401901 -0.31138,-0.55751 -0.59987,3.72272 -0.38884,5.76913 0.29776,2.88622 0.16502,5.62336 -0.39307,8.105041 -0.2845,1.26552 -0.51724,2.7602 -0.51724,3.32151 0,0.80263 -0.33719,1.56193 -1.57871,3.55576 -3.31317,5.32082 -4.1622,6.51192 -6.04572,8.48111 -1.94572,2.03434 -5.68775,6.53274 -7.18184,8.63355 -0.43872,0.61682 -2.11109,2.57944 -3.71645,4.36138 -3.08571,3.42505 -5.60418,6.67343 -8.73977,11.27254 -3.52397,5.16898 -7.03525,8.70494 -9.36805,9.43386 -3.49298,1.0915 -4.82921,2.16025 -9.94996,7.95835 -1.57179,1.77959 -3.52666,3.79636 -4.34436,4.48172 -1.77483,1.48769 -2.16954,1.18872 4.2399,3.21081 6.58609,2.07775 7.53019,2.20484 7.53019,1.01358 0,-0.68992 0.19542,-1.03898 0.92357,-1.64935 1.13506,-0.95156 1.97799,-2.30264 2.81365,-4.51021 1.23318,-3.25744 1.68869,-3.62187 8.00917,-6.40784 5.04939,-2.22572 6.97727,-3.24726 8.49413,-4.5007 4.69482,-3.87948 5.65829,1.0594 1.20372,6.17 -1.53247,1.75804 -4.80949,4.07262 -8.34859,5.89649 -2.44289,1.25899 -3.66528,2.30448 -6.52823,5.58379 -0.76723,0.87876 -1.02004,1.33061 -0.78307,1.39958 3.12855,0.91078 6.0706,2.00282 8.18075,3.03657 2.78713,1.3653 3.00673,1.34547 6.00383,-0.54221 z m 9.08719,-37.4322 c -1.19738,-0.72688 -0.99152,-2.31116 0.57205,-4.4031 0.63026,-0.84331 2.28233,-3.43392 3.67126,-5.75692 3.902,-6.5261 5.34691,-7.95246 6.59782,-6.51332 1.23564,1.42149 0.27194,15.37191 -1.0623,15.37724 -0.47017,0.002 -1.08975,0.0594 -1.37684,0.12785 -0.82849,0.19748 -1.2063,-0.21259 -1.83246,-1.98906 -0.58543,-1.66114 -0.58543,-1.66114 -1.12543,-0.8271 -0.83073,1.28342 -4.19543,4.18491 -4.84306,4.17641 -0.16009,-0.002 -0.4305,-0.0885 -0.60104,-0.192 z m -43.76262,28.14346 c 1.67436,-1.27507 3.93592,-3.58955 6.48726,-6.6392 3.97125,-4.74692 5.44585,-5.88401 9.38647,-7.23858 2.24466,-0.77159 6.0483,-4.82721 9.67848,-10.31973 2.05793,-3.11365 5.42321,-7.40604 7.82502,-9.98067 0.95901,-1.02805 3.2654,-3.80667 5.12521,-6.17475 1.85992,-2.36806 4.00693,-4.9475 4.77134,-5.73209 2.11004,-2.16599 3.23113,-3.50213 3.99848,-4.76557 0.38321,-0.63082 1.25889,-1.97443 1.94608,-2.98577 0.6873,-1.01137 1.24949,-2.03159 1.24949,-2.26718 0,-0.23557 0.22781,-0.67901 0.50609,-0.9854 0.27828,-0.30639 0.57193,-0.88429 0.65256,-1.28424 0.081,-0.39994 0.21889,-1.08223 0.30727,-1.51621 0.20352,-0.99829 -2.98055,2.09903 -6.57552,6.39653 -2.72762,3.26071 -5.02767,5.82179 -7.44721,8.29256 -2.70415,2.76151 -3.48699,3.74528 -5.01476,6.30208 -8.8075,14.74033 -10.54677,16.80526 -17.22722,20.45312 -4.08897,2.23283 -6.86448,4.88183 -12.23886,11.68129 -0.81253,1.02805 -2.69323,3.07368 -4.17911,4.54586 -2.64828,2.62377 -2.68865,2.68125 -2.04137,2.90867 1.12086,0.39381 1.48435,0.30385 2.7903,-0.69072 z m -3.17022,-3.46162 c 1.54092,-1.47352 4.16221,-4.36138 5.82507,-6.41745 4.54459,-5.61898 7.4843,-8.29472 11.69545,-10.64534 6.09525,-3.40219 8.8467,-6.71849 16.59367,-20.00005 1.31064,-2.24699 2.57621,-3.83277 5.10736,-6.39969 2.65721,-2.69477 5.38835,-5.66984 8.20353,-8.93632 1.24034,-1.43926 3.05766,-3.41075 4.03838,-4.38108 2.274,-2.24998 3.71809,-5.332231 3.90224,-8.329221 0.13122,-2.1357 -0.13943,-1.78062 -2.14982,2.82063 -1.15149,2.63566 -2.70004,4.246491 -6.25745,6.509331 -1.482,0.94264 -3.46258,2.58185 -5.4583,4.51749 -1.72284,1.6709 -3.9547,3.73828 -4.9596,4.59417 -1.00502,0.85589 -3.06248,2.69219 -4.57206,4.08066 -5.54984,5.10427 -12.54577,10.62686 -17.09365,13.49366 -4.34319,2.7378 -10.08939,8.07548 -12.38017,11.49978 -2.67164,3.99388 -5.27016,7.77721 -6.02472,8.77159 -0.73706,0.97156 -2.76142,2.17922 -4.43532,2.64596 -1.45007,0.40433 -7.04651,2.97433 -6.85837,3.14946 1.04046,0.96835 10.58925,5.65506 11.5938,5.69045 0.23568,0.008 1.68916,-1.1905 3.22996,-2.66403 z m -14.59513,-5.8772 c 1.56463,-0.73088 3.72572,-1.64667 4.80245,-2.03511 3.67947,-1.32738 4.1845,-1.87938 10.18023,-11.1271 1.96332,-3.02815 8.36702,-9.09524 12.00753,-11.37642 4.76277,-2.98435 13.66405,-9.97485 17.48906,-13.73474 0.93319,-0.9173 2.51401,-2.33533 3.51281,-3.15119 0.9988,-0.81585 3.52432,-3.11761 5.61217,-5.115 2.37599,-2.27301 4.67498,-4.20501 6.14548,-5.16428 4.09085,-2.668871 5.05127,-3.741481 6.51707,-7.278891 0.53966,-1.30218 1.1907,-2.70405 1.44691,-3.11527 1.04387,-1.67527 2.63537,-5.67006 2.55744,-6.41903 -0.0822,-0.792468 -0.73272,-1.295833 -0.73272,-0.567235 0,0.232545 -0.40574,0.569135 -0.9454,0.784445 -0.51994,0.20742 -1.43036,0.67288 -2.02295,1.03436 -0.5927,0.36148 -3.19204,1.85756 -5.77624,3.32462 -5.88845,3.34285 -10.14139,6.10638 -10.45863,6.79581 -0.13404,0.29145 -0.49025,0.56353 -0.79165,0.60462 -0.3014,0.0412 -1.59936,1.10656 -2.88454,2.3677 -2.8275,2.774631 -6.59864,5.253571 -15.6228,10.269411 -1.43576,0.79798 -3.44674,2.03939 -4.46912,2.7587 -1.02228,0.71931 -2.7842,1.82953 -3.91551,2.46716 -1.13118,0.63764 -2.82022,1.61753 -3.75341,2.17754 -7.31764,4.39132 -11.36154,6.661 -17.13508,9.61722 -5.95711,3.05025 -7.44827,3.95609 -14.44972,8.77815 -5.60231,3.85841 -20.45776,11.62053 -22.44726,11.729 -0.21619,0.0118 -0.0481,0.11993 0.37441,0.24035 0.4521,0.12894 0.88554,0.12548 1.05454,-0.008 0.15775,-0.12503 1.17204,-0.40192 2.25393,-0.61528 2.5092,-0.49483 5.93939,-1.60095 7.93804,-2.55976 3.77677,-1.81176 9.61886,-4.86333 12.25095,-6.39906 3.2897,-1.91945 4.63297,-2.15532 4.79153,-0.84128 0.11385,0.9388 -6.472,6.9578 -12.02419,10.99009 -2.80614,2.03798 -2.80614,2.03798 -1.64679,2.22821 2.34736,0.38517 14.33434,-10.01968 18.49878,-16.05725 2.19255,-3.17872 4.7305,-5.03024 9.03942,-6.59438 4.70198,-1.70684 9.80536,-3.88838 12.154,-5.19558 1.2921,-0.71913 4.34624,-2.41519 6.7869,-3.76902 4.84118,-2.68542 7.3201,-4.36891 10.47389,-7.11303 1.1306,-0.98368 4.58109,-3.38899 7.66774,-5.34512 3.08677,-1.95613 7.37421,-4.69644 9.52767,-6.089561 2.15357,-1.39314 4.61313,-2.8715 5.46581,-3.28524 0.85267,-0.41375 1.86039,-0.9712 2.23949,-1.23876 0.87744,-0.61941 1.9733,-0.41015 2.19113,0.41842 0.25223,0.95931 -0.0681,1.31382 -2.15721,2.39255 -4.42993,2.286741 -8.39179,4.974691 -8.39179,5.693531 0,0.52865 -0.84798,1.47029 -4.11127,4.56525 -4.03052,3.82273 -4.84505,4.50931 -8.93801,7.53382 -1.11288,0.82243 -2.89018,2.17701 -3.94954,3.01019 -2.77985,2.18649 -5.43482,3.83082 -10.15288,6.28817 -6.28797,3.27504 -9.54821,6.15096 -12.56068,11.08009 -3.63546,5.94849 -6.80439,9.34355 -12.5128,13.40561 -1.20994,0.86099 -2.66976,1.96791 -3.24404,2.45982 -0.57428,0.49192 -1.39198,1.15252 -1.8172,1.46804 -0.63156,0.46864 -0.70327,0.61582 -0.39154,0.80404 0.7143,0.43135 1.47696,0.23893 4.32359,-1.0909 z m -6.21497,-1.21647 c 0.81935,-0.57754 1.95969,-1.45578 2.53385,-1.95165 0.57428,-0.49585 1.94173,-1.52911 3.03865,-2.29606 5.13366,-3.58936 8.89024,-7.49888 11.66739,-12.14233 1.29797,-2.17017 4.37512,-6.05726 6.30711,-7.96709 1.15759,-1.14432 2.39899,-1.91668 6.65626,-4.14139 5.28131,-2.75976 8.06504,-4.46799 10.70229,-6.56746 1.14856,-0.91431 2.85179,-2.21602 3.78498,-2.8927 3.15567,-2.28816 6.65217,-5.04058 7.43947,-5.85612 1.29797,-1.34462 -5.40936,3.06068 -7.56329,4.9675 -2.6153,2.31523 -4.93272,3.93209 -8.75128,6.10586 -9.16852,5.21937 -12.15142,6.67697 -18.92482,9.24759 -6.21614,2.35915 -8.14203,3.66956 -10.46907,7.12338 -1.79491,2.66388 -9.74339,10.4159 -13.4988,13.165 -2.33996,1.71301 -2.33844,1.75933 0.0786,2.44285 1.07943,0.30523 2.72598,0.83208 3.65917,1.17082 0.93319,0.33875 1.73117,0.62171 1.77319,0.62886 0.0422,0.007 0.74681,-0.45953 1.56615,-1.03706 z M 488.33125,138.30949 c 2.93427,-0.80117 5.53506,-1.22796 10.75168,-1.76439 2.72778,-0.28047 5.95806,-0.67695 7.17837,-0.88107 7.36857,-1.23236 56.24468,-1.70019 90.20238,-0.86341 9.35373,0.23051 10.61755,0.36209 11.26319,1.17282 0.27675,0.34754 0.67908,0.14714 3.26293,-1.62525 6.24302,-4.28255 11.26612,-7.32269 17.17346,-10.39377 3.37374,-1.75402 7.42632,-3.95164 9.0055,-4.88361 1.5793,-0.93198 3.66434,-2.16151 4.63332,-2.73228 0.96911,-0.57078 1.76204,-1.07739 1.76204,-1.12582 0,-0.23527 -3.3242,1.35601 -6.00382,2.87394 -3.64227,2.06334 -3.76433,2.10367 -8.77628,2.8974 -6.31003,0.99934 -6.58608,0.43866 -2.78267,-5.65115 2.26696,-3.62966 5.87953,-8.58281 7.72702,-10.59415 0.77404,-0.84276 2.39336,-2.7493 3.59849,-4.23677 1.98586,-2.450921 3.25354,-3.814771 7.10332,-7.642091 4.27453,-4.24944 4.2507,-4.61021 -0.21349,-3.23041 -4.60645,1.42378 -7.34311,1.57359 -10.62752,0.58181 -2.01344,-0.60801 -2.01344,-0.60801 -6.26473,-0.009 -7.74978,1.09101 -9.76393,0.8038 -12.64354,-1.8029 -1.00667,-0.91127 -1.09246,-0.8916 -4.85421,1.11195 -3.4242,1.82383 -4.65586,2.05214 -5.85864,1.0859 -1.05842,-0.85028 -0.66571,-0.94001 -5.99396,1.36969 -12.63944,5.47896 -12.35247,5.42937 -33.11113,5.72194 -19.68981,0.27751 -18.49669,0.051 -14.69645,2.789141 1.66532,1.19986 4.00879,3.06426 5.20771,4.14309 3.817,3.4347 4.98835,4.28147 7.79204,5.63284 2.79424,1.34683 3.94467,2.12173 7.84351,5.2832 1.21341,0.98392 4.37927,3.49997 7.0353,5.5912 6.93642,5.46143 7.51176,5.92588 9.25807,7.47285 0.86617,0.76728 1.89596,1.46994 2.28867,1.56144 1.23506,0.28786 1.21558,2.13945 -0.027,2.51585 -0.78871,0.23901 -1.755,-0.25697 -3.49286,-1.7929 -1.65289,-1.46084 -10.66273,-8.71021 -14.78521,-11.89637 -1.23625,-0.95546 -3.24617,-2.56218 -4.46649,-3.57052 -1.56684,-1.29466 -3.00317,-2.19711 -4.88843,-3.07143 -1.63103,-0.75643 -3.64658,-1.97476 -5.18083,-3.13166 -2.09099,-1.57672 -2.93279,-2.03657 -5.03078,-2.74825 -1.3858,-0.47006 -3.11832,-1.05897 -3.85009,-1.30868 -1.42508,-0.48628 -4.7333,-2.1971 -7.28358,-3.76663 -1.72388,-1.06095 -4.97333,-4.299461 -7.97624,-7.949451 -1.94296,-2.36163 -1.94296,-2.36163 -2.11418,0.49844 -0.0941,1.57304 -0.35274,4.65447 -0.57456,6.847621 -0.22183,2.19315 -0.53785,5.50157 -0.70225,7.35204 -0.96605,10.87325 -2.72949,12.99564 -15.57355,18.74389 -1.17851,0.52742 -2.21327,1.06789 -2.29943,1.20101 -0.23439,0.36211 -1.24526,0.29232 -2.17404,-0.15003 -1.13668,-0.54141 -1.1838,-1.75681 -0.0823,-2.12341 1.38511,-0.46101 4.62482,-4.21821 10.08006,-11.69014 4.91379,-6.73032 5.13165,-7.45936 3.46368,-11.5903 -2.02167,-5.006891 -2.4827,-8.816251 -1.41743,-11.711931 0.7774,-2.11313 0.25054,-4.14478 -2.14872,-8.28585 -1.76611,-3.048305 -1.4576,-3.229347 -7.11259,4.17369 -5.74957,7.52683 -9.55011,11.05206 -15.8443,14.696531 -5.44637,3.15356 -7.42353,4.99528 -12.13235,11.30119 -5.29475,7.09062 -7.71647,9.63702 -12.39182,13.02981 -4.34611,3.15387 -9.67383,5.70709 -11.49892,5.51068 -2.10618,-0.22664 -2.43963,-1.46405 -0.77452,-2.87413 0.59515,-0.50398 1.79917,-1.57216 2.67559,-2.3737 0.87642,-0.80157 2.29827,-2.02523 3.15967,-2.71923 2.0404,-1.64393 7.65858,-6.62758 9.62023,-8.53371 0.84637,-0.82242 2.24114,-2.50468 3.09946,-3.73833 1.57134,-2.25841 2.90385,-3.89336 4.67177,-5.73209 1.12374,-1.16876 3.09954,-3.54331 3.09954,-3.7251 0,-0.0694 -1.82742,1.24513 -4.06098,2.92102 -9.27417,6.95871 -11.86196,8.18574 -11.86196,5.62451 0,-0.94248 0.4831,-2.15996 1.17107,-2.95127 0.17875,-0.2056 0.40635,-0.69971 0.50577,-1.09803 0.41266,-1.65334 10.35,-11.277471 20.83873,-20.181981 2.47283,-2.099333 1.61976,-3.102926 -4.57284,-5.379592 -2.93744,-1.079931 -3.84845,-1.574113 -5.73249,-3.109705 -1.87009,-1.524182 -2.45281,-1.658517 -4.37928,-1.009569 -3.19706,1.076952 -6.07324,-0.161396 -14.09573,-6.068933 -6.76321,-4.98026 -5.75444,-4.778148 -8.96473,-1.796106 -2.46895,2.293442 -2.727,2.619987 -2.87279,3.635563 -0.25612,1.784088 -5.8891,10.426064 -8.56325,13.137522 -1.29917,1.31731 -2.96241,1.30909 -3.65656,-0.0181 -0.23868,-0.45632 -0.48866,-0.88192 -0.55554,-0.945759 -0.0669,-0.06384 -0.75256,0.643759 -1.52378,1.572429 -0.77121,0.92868 -2.22446,2.59519 -3.22943,3.70335 -3.51889,3.88024 -6.43181,7.28647 -9.90085,11.577591 -2.08116,2.57436 -5.96586,6.47976 -6.44543,6.47976 -1.75857,0 -1.39303,-1.64384 0.84555,-3.80245 1.02184,-0.98532 2.74483,-2.91604 3.82886,-4.290481 2.17221,-2.7541 7.87692,-9.65391 8.14479,-9.85103 0.0932,-0.0685 1.68085,-1.84935 3.52829,-3.95736 3.79351,-4.328596 5.91706,-5.612881 6.52802,-3.948003 0.69222,1.886376 0.57676,1.837558 1.52552,0.644945 4.14027,-5.204336 7.04496,-9.853676 7.32786,-11.729194 0.16077,-1.065866 0.40231,-1.384875 2.70772,-3.576054 5.17145,-4.915241 -1.50316,-1.848157 -23.57201,10.831695 -2.44064,1.402298 -4.74121,2.755338 -5.11239,3.006756 -1.97028,1.334636 -4.86109,2.467964 -7.00292,2.745474 -4.30047,0.5572 -9.68085,3.146311 -9.68085,4.658561 0,0.79938 -0.0329,0.82474 -1.07004,0.82474 -0.76928,0 -1.49089,0.24801 -2.5674,0.88241 -1.05699,0.62289 -2.02817,0.96087 -3.30225,1.14918 -2.67592,0.39553 -2.37946,0.19099 -9.50532,6.55768 -0.78962,0.7055 -2.61031,2.16783 -4.04599,3.249621 -4.96062,3.73791 -5.48913,4.15923 -7.30889,5.82682 -2.80644,2.57176 -5.62259,4.8455 -10.22219,8.25335 -4.69796,3.48072 -4.85988,3.65764 -2.15933,2.35919 1.04402,-0.50197 3.43472,-1.46614 5.31265,-2.14258 10.32878,-3.72049 23.10606,-11.87078 35.0221,-22.339651 5.73327,-5.03699 7.24567,-6.02296 9.56708,-6.23703 3.63471,-0.33519 4.031,1.50321 1.03939,4.82164 -1.62823,1.80609 -2.85025,3.41604 -6.69712,8.823171 -0.72702,1.0219 -2.32379,2.87237 -3.54841,4.11216 -2.76553,2.79985 -3.1305,3.30451 -4.02546,5.56625 -1.46715,3.70777 -3.64822,6.03028 -7.66854,8.16583 -3.16513,1.6813 -9.58234,6.34144 -8.73242,6.34144 0.71409,0 4.66138,-1.12155 8.32135,-2.36436 2.27049,-0.77098 5.83661,-1.85004 7.92473,-2.39792 4.02111,-1.05505 5.3105,-1.59601 11.75805,-4.93305 8.35743,-4.32551 12.37882,-7.81158 18.38877,-15.940871 3.18591,-4.3094 6.57636,-6.65155 7.04545,-4.86707 0.21382,0.81337 -0.0813,1.24218 -2.3897,3.47155 -0.99853,0.96436 -2.03638,2.08585 -2.30636,2.492221 -1.231,1.85286 -6.68382,8.15457 -8.56178,9.89468 -4.89034,4.53133 -16.57994,10.55151 -23.79229,12.2531 -1.43568,0.33872 -5.09284,1.40794 -8.12702,2.37607 -3.03419,0.9681 -5.7946,1.77032 -6.13425,1.7827 -0.6824,0.0249 2.01701,0.76255 4.86411,1.32929 1.00498,0.20004 3.53047,0.48535 5.61219,0.63402 5.79288,0.4137 11.21441,0.98329 15.5314,1.63174 6.41657,0.96381 14.08376,1.84023 18.53327,2.11843 12.64915,0.79096 11.95418,0.72482 20.62151,1.96313 2.87135,0.41021 7.31379,0.92073 9.87206,1.1344 5.64995,0.47196 7.65451,0.75084 10.87998,1.51373 1.74414,0.41251 3.65522,0.63633 6.44195,0.75449 3.72626,0.15795 3.99705,0.20344 4.5483,0.76366 0.3224,0.32764 0.59542,0.5957 0.60675,0.5957 0.0117,0 0.81987,-0.21825 1.79678,-0.48497 z m -69.93602,-8.34429 c -0.38347,-0.95412 0.0465,-1.50416 2.1171,-2.70837 1.14854,-0.66796 2.62738,-1.62562 3.28631,-2.12814 9.51412,-7.2559 10.60937,-8.41061 15.6208,-16.46888 0.98756,-1.58798 2.57019,-3.74664 3.51695,-4.79701 1.57608,-1.74857 1.72139,-2.00554 1.72139,-3.04419 0,-0.879361 0.11738,-1.194401 0.52207,-1.401181 0.6225,-0.31808 1.56619,0.0627 1.56619,0.631821 0,0.20079 0.1678,0.36507 0.3729,0.36507 1.24369,0 1.45402,1.19446 0.4102,2.32952 -1.71016,1.85963 -0.75742,8.74613 1.75655,12.69668 1.79944,2.82769 3.33294,7.64269 2.73049,8.57337 -0.7488,1.15678 -2.39879,0.36685 -2.39879,-1.14842 0,-1.35037 -0.83179,-3.46862 -2.34508,-5.97206 -1.45066,-2.39984 -2.42741,-5.55594 -2.7562,-8.90594 -0.22151,-2.25688 -0.29242,-2.20671 -3.03368,2.1465 -3.48,5.52633 -6.0482,8.84236 -8.37415,10.8126 -3.06715,2.59811 -8.67779,6.6967 -10.71341,7.82618 -1.11811,0.62041 -2.09413,1.22256 -2.16891,1.3381 -0.22722,0.351 -1.67748,0.23563 -1.83073,-0.14565 z m 50.99195,-5.66723 c 4.32905,-3.10841 7.18337,-6.01644 11.47643,-11.69234 6.18356,-8.17533 7.8674,-9.81061 13.33158,-12.947201 6.77429,-3.88864 10.87523,-7.82644 17.55138,-16.853256 0.89655,-1.21219 2.0513,-2.70092 2.56613,-3.308286 0.51483,-0.607368 0.94943,-1.280266 0.96575,-1.49533 0.0939,-1.237914 0.11431,-1.263302 1.01559,-1.263302 0.49314,0 1.21541,0.115724 1.60506,0.25716 0.62214,0.225841 0.66801,0.210664 0.37656,-0.124612 -0.1825,-0.209974 -0.49366,-0.38177 -0.69142,-0.38177 -0.19778,0 -0.35959,-0.09691 -0.35959,-0.215362 0,-0.384828 -2.20311,-1.030746 -3.51569,-1.030746 -2.08204,0 -5.77382,2.039107 -13.37828,7.389291 -6.64644,4.676153 -24.05187,20.504534 -25.38965,23.089154 -0.5546,1.07151 -0.65361,1.12998 3.71111,-2.19178 1.08065,-0.82243 2.91952,-2.20477 4.08635,-3.07186 1.16682,-0.867091 2.97238,-2.338041 4.01233,-3.268761 1.03997,-0.93073 3.18294,-2.73901 4.76219,-4.01841 2.68499,-2.17521 8.70945,-7.19113 9.48104,-7.89384 0.18972,-0.17279 0.6762,-0.31415 1.08109,-0.31415 1.41108,0 1.36712,2.15101 -0.07,3.42658 -1.02753,0.912 -4.09275,3.99277 -5.6414,5.67001 -0.63281,0.68537 -2.67197,2.79054 -4.53144,4.67816 -1.85945,1.887641 -4.18185,4.411011 -5.16086,5.607501 -0.979,1.19648 -2.37693,2.79225 -3.10646,3.54614 -0.72956,0.7539 -2.23503,2.65474 -3.34551,4.2241 -2.2366,3.16075 -4.0636,5.01683 -9.83127,9.98767 -7.5131,6.47513 -7.78159,7.06393 -1.00101,2.19524 z m -86.85499,0.41301 c 0,-0.43531 -0.23549,-0.23997 4.792,-3.97528 2.13311,-1.58485 4.65859,-3.29108 5.61218,-3.7916 4.71308,-2.47382 7.00507,-4.70679 8.12282,-7.91367 0.75684,-2.17138 1.79013,-3.63343 4.44068,-6.28327 1.2531,-1.25276 2.96214,-3.215381 3.79788,-4.361371 0.83573,-1.14599 2.2504,-3.09297 3.14371,-4.32663 0.8933,-1.23365 2.21215,-2.85982 2.93078,-3.61371 4.12161,-4.32392 -1.16798,-0.51861 -9.18976,6.61106 -3.0642,2.72343 -12.36575,9.453431 -18.69069,13.523391 -2.96981,1.911 -9.94177,5.23992 -13.11787,6.26341 -1.25678,0.405 -4.29245,1.60614 -6.74593,2.66919 -5.08916,2.20508 -5.0759,2.11213 -0.38949,2.7302 2.50496,0.33039 7.65119,1.30035 13.07491,2.46443 2.07132,0.44455 2.21878,0.4448 2.21878,0.004 z m 134.5679,-2.18008 c 0.71456,-0.44649 2.45403,-1.4767 3.86545,-2.28933 4.90242,-2.82256 5.20458,-3.66651 6.43005,-17.9581 0.67459,-7.867301 0.79566,-9.361131 0.94633,-11.676241 0.32444,-4.98532 1.46606,-4.76452 6.30091,1.21863 4.73982,5.86553 8.50579,8.870081 13.73046,10.954301 1.30221,0.51949 1.21177,0.3696 -0.54266,-0.89928 -2.55028,-1.84449 -3.82113,-2.623751 -4.56805,-2.801021 -0.39481,-0.0937 -0.71784,-0.28413 -0.71784,-0.42317 0,-0.13902 -0.97676,-1.17427 -2.17059,-2.30055 -2.89364,-2.72993 -5.38248,-5.75406 -7.18294,-8.72783 -1.57911,-2.60818 -5.26264,-7.736396 -6.68673,-9.309277 -0.86271,-0.952861 -0.86271,-0.952861 -2.13466,-0.584835 -1.73652,0.502444 -4.03086,0.459485 -4.91238,-0.09198 -0.48579,-0.303886 -0.20306,0.157685 0.92481,1.509861 2.50308,3.000945 3.43063,5.456221 3.8077,10.079331 0.19026,2.3328 -0.002,3.20782 -0.70553,3.20782 -0.42997,0 -0.52174,0.17843 -0.54475,1.0592 -0.0685,2.62766 0.39275,4.60755 1.89343,8.125521 2.35059,5.51032 1.20263,8.31801 -8.2941,20.28574 -1.31052,1.65152 -1.23017,1.74048 0.56109,0.62121 z m -168.82187,-2.62043 c 0.9125,-0.57079 3.04448,-0.51103 6.57602,0.18432 2.32927,0.45863 2.77204,0.48617 3.00187,0.18669 0.14828,-0.1932 0.65257,-0.54022 1.12067,-0.77115 0.4681,-0.23093 1.64274,-1.06474 2.61031,-1.8529 0.96759,-0.78817 3.63868,-2.87677 5.93577,-4.64134 4.23987,-3.25698 7.09224,-5.59862 9.9192,-8.14307 2.14062,-1.9267 3.66584,-3.15692 5.3573,-4.32113 2.0126,-1.385261 3.98381,-3.003491 8.29524,-6.809881 4.09074,-3.61155 5.5241,-4.47125 7.84015,-4.70237 2.14814,-0.21436 3.19764,-0.96381 1.72943,-1.23498 -1.12932,-0.20859 -9.0463,-0.27922 -14.91786,-0.1331 -4.27012,0.10627 -5.68627,-0.28994 -6.65828,-1.86284 -0.50968,-0.82476 -0.50968,-0.82476 -1.99144,1.00848 -5.9745,7.39171 -7.00618,8.06748 -11.81459,7.7389 -2.21166,-0.15114 -2.67419,-0.11016 -3.71473,0.32932 -1.9314,0.81569 -6.41637,3.35672 -8.66221,4.90771 -2.46792,1.704341 -6.1131,3.414011 -8.48354,3.978961 -4.734,1.12828 -6.28954,1.95495 -10.32974,5.4896 -1.25342,1.09656 -2.68442,2.27228 -3.18001,2.61268 -0.67222,0.46173 -0.81133,0.66917 -0.54774,0.81679 0.19432,0.10887 1.46923,0.82517 2.83312,1.59183 3.10957,1.74796 7.40361,3.81529 9.7887,4.71268 2.02716,0.76271 3.4621,1.55517 4.04982,2.23651 0.36479,0.42291 0.39263,0.40986 0.47086,-0.22077 0.0483,-0.39013 0.37092,-0.85026 0.77168,-1.10094 z m 281.70671,-1.44372 c 2.74898,-0.44875 3.00414,-0.55059 6.53127,-2.60624 1.36393,-0.79488 3.65447,-1.91285 5.09012,-2.48437 9.5259,-3.79211 10.04877,-4.22371 10.05382,-8.2982 0.0117,-7.957471 1.67366,-9.264851 10.93291,-8.591121 1.35255,0.0984 8.02595,-6.68461 9.63482,-9.79316 0.62827,-1.21379 1.6212,-2.632469 2.34524,-3.35103 1.68282,-1.669874 2.495,-2.767941 3.0383,-4.107562 0.24917,-0.614293 0.98507,-1.843592 1.6354,-2.731773 1.09316,-1.493035 2.95003,-5.09619 2.95003,-5.724427 0,-0.654601 -1.01699,-0.0495 -3.69085,2.196213 -2.03633,1.710142 -3.30026,2.495987 -8.80997,5.477424 -0.91734,0.496417 -2.3193,1.484623 -3.11529,2.196013 -2.05956,1.840498 -9.67238,4.055772 -13.96439,4.063502 -0.66959,0.001 -0.69928,0.0369 -0.32629,0.39296 0.63344,0.6048 0.49119,1.42772 -0.45374,2.6255 -0.47522,0.60226 -1.50301,1.98709 -2.28409,3.07741 -0.78096,1.09031 -2.96424,3.52194 -4.85151,5.40363 -1.88727,1.88169 -4.49999,4.746621 -5.80594,6.366541 -1.30595,1.61991 -2.9025,3.49754 -3.54802,4.1725 -1.23893,1.29544 -4.99986,6.34523 -6.37142,8.55475 -0.4467,0.71963 -1.16652,1.87732 -1.5996,2.57265 -0.63567,1.02037 -0.69857,1.23806 -0.3264,1.12849 0.25375,-0.0747 1.57472,-0.31754 2.9356,-0.5397 z M 331.892,108.01328 c 4.5514,-4.03167 6.3481,-5.06911 10.7696,-6.21851 1.4009,-0.36417 3.22159,-0.9542 4.04599,-1.31117 1.45325,-0.629271 2.00032,-0.952941 6.46983,-3.827831 5.2021,-3.34609 7.88113,-4.34116 11.68786,-4.34116 4.07028,0 4.12951,-0.0267 6.788,-3.05551 0.93118,-1.06091 2.10353,-2.37127 2.60522,-2.91193 3.32587,-3.5842 -0.73727,-2.524148 -9.31569,2.43042 -4.2871,2.47606 -6.61087,3.04301 -9.48162,2.3133 -1.57741,-0.40097 -1.86061,-0.26828 -6.23323,2.92035 -5.48277,3.99817 -11.55958,7.585341 -13.99503,8.261301 -1.84152,0.51112 -2.9656,1.23232 -5.84376,3.74926 -1.25394,1.09658 -2.83364,2.38534 -3.51042,2.86392 -1.23051,0.87015 -1.23051,0.87015 0.22983,1.66039 1.8299,0.99023 1.78303,1.01076 5.78342,-2.53283 z m 326.89834,-1.88283 c 8.03956,-4.49937 14.56896,-9.003251 13.93283,-9.610601 -0.96488,-0.92123 -5.34645,-0.38192 -6.42506,0.79084 -1.28459,1.39695 -2.19008,1.70337 -4.31643,1.46076 -6.78995,-0.77465 -7.79532,-0.0118 -7.93452,6.021901 -0.0493,2.1149 -0.0117,3.84528 0.0869,3.84528 0.0962,0 2.19184,-1.12868 4.65679,-2.50818 z M 327.3591,104.599 c 3.29427,-2.94667 5.00983,-4.00044 7.59457,-4.664941 1.1318,-0.29098 10.94262,-6.41126 14.03591,-8.75603 3.47858,-2.63682 4.34594,-2.92317 7.04787,-2.32687 2.33777,0.51595 3.45743,0.18925 7.79292,-2.2739 3.30088,-1.87534 3.42069,-1.99368 2.26386,-2.236263 -0.68355,-0.14334 -1.88095,-1.174101 -2.13559,-1.838377 -0.44683,-1.165627 -28.13722,0.741727 -28.54426,1.96617 -0.17326,0.52119 -0.39235,0.60493 -2.53257,0.96794 -1.89927,0.32214 -2.99741,0.87971 -5.42735,2.75565 -3.44901,2.66268 -7.44241,4.39196 -10.9139,4.7261 -4.29755,0.41363 -10.5376,4.93347 -7.96414,5.76863 3.15263,1.02313 7.2065,3.551091 9.61141,5.993581 4.35588,4.42397 4.13186,4.42596 9.17127,-0.0817 z m -22.04357,-7.923011 c 0.15919,0 1.30279,-0.93266 2.54131,-2.07257 2.71672,-2.50043 4.42889,-3.37414 7.26484,-3.70717 3.72953,-0.43796 7.50088,-2.02625 10.45788,-4.4043 0.61983,-0.49848 1.77947,-1.31498 2.57697,-1.81444 1.16565,-0.730047 1.35415,-0.93547 0.96127,-1.047575 -0.26878,-0.0767 -1.95559,-0.550418 -3.74843,-1.052712 -1.79287,-0.502294 -3.90723,-1.189659 -4.69858,-1.527477 -0.79136,-0.33782 -2.90714,-0.889457 -4.70174,-1.225862 -2.16434,-0.405713 -3.94174,-0.914474 -5.27919,-1.511103 -2.42797,-1.083105 -2.94912,-0.970497 -6.754,1.459399 -3.57412,2.282522 -4.74175,2.404596 -6.36479,0.665425 -1.02422,-1.097498 -8.43249,0.368579 -13.0025,2.573161 -1.29844,0.626371 1.93739,4.122204 7.90412,8.539244 6.0525,4.4805 10.95188,6.7504 12.08639,5.59965 0.25684,-0.26051 0.59724,-0.47367 0.75645,-0.47367 z m 243.49397,-0.7574 c 0.93319,-0.13722 8.27471,-0.34894 16.3145,-0.4705 19.92991,-0.30131 19.83907,-0.28394 33.62448,-6.42864 3.3512,-1.49373 5.26241,-1.71325 6.39512,-0.7345 0.68754,0.59398 0.81195,0.56158 3.59779,-0.93681 4.05669,-2.18199 5.85782,-2.36307 7.6999,-0.77412 2.58843,2.23266 3.56293,2.38694 9.37263,1.48379 4.12535,-0.64132 7.2958,-0.60169 9.49879,0.11874 2.71565,0.8881 5.95007,0.28502 13.64399,-2.54403 2.87515,-1.0572 0.99809,-1.22815 -14.39819,-1.311319 -5.88904,-0.03181 -10.56543,-0.161104 -11.09382,-0.306726 -0.50257,-0.138455 -1.82906,-0.483099 -2.94792,-0.765872 -1.11887,-0.282774 -2.97492,-0.79786 -4.12477,-1.144635 -2.42411,-0.731134 -3.11318,-0.758246 -6.58221,-0.259003 -4.15951,0.59858 -7.18443,1.350764 -7.34886,1.827368 -0.0798,0.229879 -0.81335,0.694267 -1.63105,1.031967 -0.8177,0.3377 -2.54935,1.22613 -3.84802,1.97428 -9.61264,5.53773 -15.60379,6.69044 -36.42591,7.0083 -10.34909,0.15799 -13.59651,0.28528 -15.11031,0.59232 -3.17016,0.64298 -3.08769,0.58612 -2.07743,1.43221 0.95342,0.79846 1.32448,0.81259 5.44129,0.20718 z m 129.09979,-3.42548 c 1.5685,-1.06695 4.79001,-3.05252 7.15884,-4.41238 2.36894,-1.35986 5.22297,-3.00269 6.34231,-3.65073 1.11945,-0.648045 2.17658,-1.225538 2.34934,-1.28332 0.22347,-0.07479 0.18861,-0.241235 -0.12112,-0.577609 -0.2392,-0.259904 -0.67134,-1.068533 -0.96007,-1.796958 -1.03541,-2.611537 -7.55049,-9.518312 -8.23979,-8.735192 -0.0434,0.04991 -0.55362,1.124622 -1.13271,2.388266 -0.5791,1.263643 -1.46816,2.837636 -1.97565,3.497759 -0.50762,0.660123 -1.32485,2.037455 -1.81615,3.060734 -0.60198,1.253554 -1.4482,2.429817 -2.59394,3.60563 -1.09434,1.12306 -2.09701,2.49799 -2.81283,3.85721 -0.75163,1.42739 -1.65946,2.65324 -2.80016,3.78137 -1.68798,1.66928 -1.68798,1.66928 -0.55456,1.80925 0.62322,0.077 1.42695,0.18228 1.78586,0.23398 2.16285,0.31155 2.42764,0.22387 5.37063,-1.77801 z m -134.39615,0.0808 c 3.79507,-0.91033 7.25209,-1.13155 17.68303,-1.13155 9.38759,0 15.69858,-0.39792 20.22744,-1.27536 2.89452,-0.56082 10.27201,-3.24346 12.36832,-4.49744 0.74293,-0.44442 2.15041,-1.21581 3.12773,-1.7142 1.77682,-0.906161 1.77682,-0.906161 0.33285,-1.855729 -1.69972,-1.117625 -2.03644,-1.117424 -9.52814,0.0058 -6.09396,0.913627 -22.12367,0.86603 -23.9604,-0.07114 -1.20336,-0.61401 -2.03339,-0.714762 -2.31424,-0.28091 -0.43205,0.667431 -3.80401,0.104708 -6.65662,-1.110888 -1.49832,-0.638482 -3.58545,-1.388738 -4.63806,-1.667238 -2.37562,-0.628532 -4.2558,-1.512581 -5.78309,-2.719185 -2.38294,-1.882593 -2.38684,-1.883807 -6.12404,-1.901039 -3.65158,-0.01685 -7.56272,-1.079699 -10.95253,-2.976382 -1.38725,-0.776201 -1.08467,-0.911178 -4.89931,2.185568 -2.41841,1.963265 -2.30883,2.895197 0.25664,2.182812 4.34911,-1.207654 6.15522,0.188855 11.66993,9.023371 1.8213,2.9177 6.01457,8.38331 6.44966,8.40664 0.10187,0.006 1.3353,-0.26592 2.74083,-0.60308 z"
       id="path1618" /></g></svg>
